<?xml version="1.0" encoding="UTF-8" standalone="no"?>
<!-- Created with Inkscape (http://www.inkscape.org/) -->

<svg
   width="123.6334mm"
   height="151.28723mm"
   viewBox="0 0 123.6334 151.28723"
   version="1.1"
   id="svg1"
   xml:space="preserve"
   xmlns="http://www.w3.org/2000/svg"
   xmlns:svg="http://www.w3.org/2000/svg"><defs
     id="defs1" /><g
     id="layer1"
     transform="translate(-52.736262,-28.683521)"><path
       style="display:inline;opacity:1;fill:#0e1f34;fill-opacity:1;stroke:#1eff13;stroke-width:0;stroke-linejoin:round;stroke-dasharray:none"
       d="m 149.54972,74.415338 c 1.11501,1.311461 2.17155,2.573372 3.24902,4.012864 0.544,0.826886 1.21965,1.631046 1.53977,2.548827 0.31721,0.837856 0.36605,1.675713 0.54248,2.513569 l 19.136,-0.100068 -0.73383,38.42636 c 0.84573,0.31718 1.51742,0.84005 2.01721,1.56606 0.36346,0.6788 0.27184,1.35761 0.38443,2.03641 l -2.93431,7.39698 c 1.49385,3.29155 1.33598,6.33583 0.42353,7.84316 l -2.37674,1.90495 -0.86726,26.95182 -20.84764,0.0667 c -11.18545,3.36898 -23.66853,8.16393 -33.55635,10.10693 -3.51235,0.58405 -7.11733,0.099 -11.31151,-0.0462 -6.197306,-0.32739 -9.591715,-1.6105 -14.906472,-2.72237 C 80.323773,169.65967 73.748363,161.4445 65.96852,153.70608 l -3.655595,-45.67417 c 2.688414,-6.40737 5.561898,-5.35126 9.465364,-10.357523 2.315023,-3.770748 5.614558,-6.506833 9.311767,-9.083875 -1.339024,-1.462083 -2.710893,-2.928379 -3.655892,-4.434242 -0.784247,-0.90088 -0.675251,-1.603027 -0.617295,-2.536726 0.05716,-1.280295 3.206143,-5.851986 4.539572,-7.952013 l 7.235288,-1.051077 c 20.224981,0.678246 41.474181,-3.771132 60.957991,1.798874 z"
       id="path108" /><path
       style="fill:#caf1ff;fill-opacity:1"
       d="m 163.23763,156.79268 c 0.0951,-1.7691 0.17295,-4.25323 0.17295,-5.5203 v -2.30377 l -1.23362,-0.47112 c -0.79121,-0.30217 -1.97924,-1.18349 -3.31278,-2.45755 -3.45488,-3.30077 -4.70825,-6.60239 -4.16156,-10.96233 0.40236,-3.20886 1.30235,-4.6822 3.87931,-6.35061 1.07289,-0.69463 1.65365,-1.24724 1.65365,-1.5735 0,-1.45579 2.18324,-4.20453 4.60328,-5.79561 l 1.66219,-1.09283 0.17413,-8.90135 c 0.0958,-4.89574 0.17432,-11.491835 0.17456,-14.657975 l 4.2e-4,-5.756617 -17.12014,0.06808 -17.12015,0.06808 -0.36312,2.645833 c -0.44975,3.277044 -2.1235,8.426879 -3.48544,10.724139 -2.8284,4.77081 -6.9802,8.00981 -12.22732,9.53906 -1.45991,0.42548 -3.01778,0.60693 -6.30467,0.7343 l -4.36562,0.16917 v 15.73541 15.73541 l 2.64583,1.82887 c 7.46841,5.16235 14.65569,8.35829 22.75417,10.118 4.23808,0.92089 7.72764,1.17774 17.99167,1.3243 5.67531,0.081 10.43781,0.18792 10.58333,0.23751 0.14552,0.0496 0.9309,0.0996 1.74528,0.11106 l 1.48069,0.0209 z"
       id="path69" /><path
       id="path75"
       style="fill:#4485bc;fill-opacity:1"
       d="m 92.249666,28.683521 -0.948779,2.082043 c -3.391677,7.442544 -5.364152,17.232727 -4.388363,21.78265 0.37644,1.755295 1.589923,4.220473 2.810682,5.710245 l 0.93896,1.146184 -1.394747,0.875399 c -2.619227,1.643833 -6.819222,5.080617 -6.819222,5.580021 0,0.122145 1.38299,0.222208 3.073198,0.222208 h 3.072681 l -1.419035,1.170472 c -1.418329,1.169698 -4.985997,5.146596 -5.940206,6.621818 -0.50091,0.774408 -0.500755,0.779105 0.02325,0.566373 0.697149,-0.283042 5.875174,-1.196025 6.842993,-1.206644 0.74247,-0.0081 0.723738,0.02787 -0.905371,1.769401 -1.659378,1.773883 -5.011564,5.888472 -5.012614,6.152596 -3.1e-4,0.07664 0.766777,0.09959 1.704806,0.05116 5.782094,-0.298562 10.765131,1.51856 14.992366,5.466333 3.042175,2.841047 4.563075,5.727591 6.202205,11.772925 0.50597,1.866095 1.08659,3.715755 1.29037,4.109825 0.42435,0.82063 2.65035,2.97234 3.60856,3.48868 2.14986,1.15847 5.05543,1.56311 7.38043,1.02732 1.67956,-0.38704 3.68827,-1.44877 4.82348,-2.54919 1.24803,-1.20977 1.92949,-2.815 2.72851,-6.427518 1.65016,-7.460654 4.96655,-12.06783 10.58334,-14.702462 3.32747,-1.560801 5.44059,-2.029064 9.32501,-2.06654 1.78189,-0.01719 3.2404,-0.107373 3.24114,-0.200505 0.003,-0.430308 -2.64856,-3.750642 -4.59196,-5.749003 l -2.15336,-2.214335 1.85208,0.166398 c 1.68203,0.150826 4.27395,0.640192 5.93452,1.120345 0.62275,0.180067 0.61448,0.145286 -0.26458,-1.114144 -1.00324,-1.43732 -5.21837,-5.788951 -6.46369,-6.672977 l -0.79375,-0.56379 3.24115,-0.0083 c 1.78263,-0.0046 3.24071,-0.09757 3.24063,-0.206706 -4.3e-4,-0.583215 -5.5267,-4.933207 -7.62331,-6.000667 l -0.87643,-0.446485 0.93327,-1.033529 c 2.03809,-2.25592 3.09978,-5.412674 3.09336,-9.197888 -0.005,-2.909324 -0.0463,-3.173842 -1.36323,-8.693009 -1.42885,-5.988251 -3.55637,-11.736235 -4.34392,-11.736235 -0.41287,0 -4.53235,4.66881 -6.96288,7.891508 -1.90084,2.520365 -4.24208,6.753595 -4.84157,8.754505 l -0.30592,1.022676 -1.35599,-0.597896 c -4.60295,-2.029007 -12.59188,-2.221796 -17.80512,-0.429431 l -2.16162,0.743624 -0.4532,-1.218014 c -0.76572,-2.059864 -2.53932,-5.31912 -4.012683,-7.372676 -1.535718,-2.140471 -5.281833,-6.545959 -6.785632,-7.980392 z m -7.471895,58.114282 c -1.613941,-0.08249 -6.904902,3.827887 -10.546643,7.837247 -2.422158,2.666661 -4.747514,5.99965 -4.747514,6.80424 0,0.52317 0.575092,1.123 1.100191,1.14721 0.096,0.004 2.47724,-1.69812 5.291667,-3.783745 4.727285,-3.503122 8.758616,-6.143188 11.533663,-7.553544 0.618469,-0.314321 1.124479,-0.697229 1.124479,-0.850594 0,-0.475342 -2.96921,-3.419027 -3.611149,-3.580144 -0.04423,-0.0111 -0.09263,-0.01801 -0.144694,-0.02067 z m 9.38289,5.75107 c -0.786609,-0.02041 -8.47718,4.177462 -11.977047,6.537585 l -3.836458,2.587442 -1.984375,3.85403 c -1.091409,2.1198 -2.323165,4.36487 -2.736784,4.98936 l -0.751892,1.13584 1.140499,1.16221 c 0.627319,0.63919 1.228822,1.13086 1.336352,1.09295 0.10753,-0.0379 2.552,-2.28271 5.432227,-4.98832 8.164152,-7.66922 12.554098,-11.459593 15.129826,-13.063805 l 1.162203,-0.723987 -1.294495,-1.28726 c -0.711839,-0.708113 -1.440816,-1.291395 -1.620056,-1.296045 z m 5.587256,9.516727 c -0.14906,0 -3.068436,4.52792 -5.098914,7.90857 -1.806228,3.00729 -4.633695,8.52705 -5.999634,11.71246 l -0.868681,2.02623 0.533301,1.01648 c 0.925099,1.76242 4.364997,6.76727 5.881295,8.5571 1.467139,1.73183 4.022145,3.96573 4.538224,3.96771 0.17769,6.9e-4 0.01711,-1.69494 -0.444417,-4.69532 -1.864248,-12.11867 -1.570578,-21.30262 0.913639,-28.575 0.36039,-1.05503 0.605777,-1.91823 0.545187,-1.91823 z m -4.593002,0.11008 c -0.04673,0.007 -0.127443,0.0518 -0.239778,0.13177 -0.970769,0.69125 -5.236695,4.40236 -7.141683,6.21254 -2.003548,1.90385 -8.235673,8.92039 -8.235673,9.2723 0,0.4219 2.468417,3.32947 2.750736,3.24012 0.1305,-0.0413 0.944723,-1.20024 1.809192,-2.57556 0.864469,-1.37533 2.9004,-4.38325 4.524789,-6.68383 1.624398,-2.30058 3.880718,-5.49621 5.013647,-7.10189 1.283838,-1.81957 1.721254,-2.52405 1.51877,-2.49545 z m -29.12277,0.62683 -0.589628,0.38551 c -1.014709,0.66374 -4.616624,4.90224 -6.202722,7.29878 -4.238756,6.4046 -6.516349,13.69416 -6.503479,20.81526 0.007,4.17103 0.361308,6.6421 1.568896,10.96367 1.153029,4.12629 2.290252,6.88514 4.216281,10.22832 1.954948,3.39337 2.686402,4.44709 5.008479,7.21455 5.018495,5.98106 9.834707,9.98573 16.055351,13.34957 2.275448,1.23045 9.313889,3.98279 9.783899,3.82612 0.1464,-0.0488 -0.386851,-0.53813 -1.184941,-1.08779 -2.918687,-2.01017 -6.018167,-5.5563 -7.826395,-8.95449 -1.710919,-3.21531 -1.671594,-3.46521 0.269234,-1.70274 4.505135,4.09116 10.470936,7.96107 15.563391,10.09603 3.754136,1.57388 9.213969,2.91386 13.774349,3.38015 2.79869,0.28617 11.61354,0.14412 14.34435,-0.23099 6.19159,-0.85049 12.89347,-2.95622 18.99109,-5.96708 3.70466,-1.82928 8.16093,-4.60158 7.86773,-4.89479 -0.0634,-0.0634 -0.87675,0.0597 -1.80764,0.27389 -4.58257,1.05483 -13.71261,1.20496 -17.85679,0.29352 -4.50306,-0.99038 -11.4805,-3.70644 -16.51165,-6.42752 -13.55149,-7.32928 -30.197623,-20.09146 -39.254454,-30.09583 -1.317389,-1.45521 -2.494728,-2.6872 -2.616378,-2.73782 -0.26877,-0.11185 -0.125215,0.57161 0.900204,4.28604 1.039259,3.76454 3.292091,9.3416 5.305619,13.13563 1.624248,3.06053 4.247579,7.25612 4.719608,7.54786 0.13956,0.0863 0.253732,0.27788 0.253732,0.42582 0,0.14794 -0.849315,-0.48458 -1.887224,-1.40508 -7.169092,-6.35823 -14.346215,-18.34916 -16.754532,-27.99209 -0.968009,-3.87592 -1.201994,-5.95401 -1.201994,-10.67842 0,-4.2926 0.333461,-7.08642 1.20096,-10.06089 z M 171.68048,122.7031 c -1.64853,0 -4.22235,0.9441 -5.7919,2.12442 -1.35723,1.02067 -2.63662,2.69583 -2.37815,3.11402 0.0752,0.12177 1.03533,0.11697 2.13372,-0.0109 1.0984,-0.12783 2.50192,-0.13236 3.11919,-0.0103 l 1.12241,0.22169 -2.29236,0.56637 c -2.31284,0.57098 -6.16415,2.21646 -7.63003,3.26027 -0.90596,0.64509 -1.69006,1.98354 -1.41903,2.42207 0.2407,0.38946 5.48716,0.12246 8.70283,-0.44286 6.6539,-1.16979 9.10512,-2.9143 9.12244,-6.49263 0.013,-2.68231 -2.02974,-4.75217 -4.68912,-4.75217 z m -2.18437,14.55209 c -2.67255,0 -9.02865,1.71381 -10.24537,2.76262 l -0.73483,0.63355 0.55448,0.74931 c 0.30499,0.41204 1.29779,1.13627 2.20607,1.60921 2.00366,1.04331 3.69658,1.12601 6.59443,0.32297 3.65312,-1.01233 5.32939,-2.19313 5.32939,-3.75532 0,-1.38979 -1.48751,-2.32234 -3.70417,-2.32234 z" /><path
       id="path93"
       style="fill:#000000"
       d="m 149.00899,100.5241 c -6.84743,0 -7.7961,0.0501 -7.9375,0.41858 -0.21685,0.56511 -0.20502,3.1529 0.0155,3.37343 0.097,0.097 3.66888,0.17674 7.9375,0.17674 h 7.76128 v -1.98438 -1.98437 z m -3.98787,14.02291 c -8.31559,0 -10.98558,0.0782 -11.29905,0.33073 -0.68698,0.55352 -0.74845,1.18554 -0.18552,1.90118 l 0.5333,0.67851 h 10.84637 c 6.97051,0 11.02854,-0.0979 11.35745,-0.27389 0.63488,-0.33977 0.67433,-1.48936 0.0739,-2.15284 -0.4107,-0.45385 -1.11374,-0.48369 -11.32644,-0.48369 z m -10.69082,7.14375 c -16.46588,0 -21.70005,0.0755 -21.94181,0.3173 -0.44806,0.44806 -0.39399,1.27592 0.1204,1.84433 0.41737,0.46116 1.44549,0.48421 21.94182,0.48421 19.19597,0 21.54792,-0.0448 21.91907,-0.416 0.22868,-0.22867 0.416,-0.63667 0.416,-0.90692 0,-0.27025 -0.18732,-0.67877 -0.416,-0.90744 -0.37119,-0.37118 -2.73408,-0.41548 -22.03948,-0.41548 z m -2.98069,6.87917 c -12.07747,0 -18.42823,0.0927 -18.76682,0.27389 -0.61923,0.33139 -0.67088,1.38119 -0.0961,1.95595 0.36999,0.36997 2.43711,0.41599 18.76682,0.41599 16.32969,0 18.39631,-0.046 18.76629,-0.41599 0.22868,-0.22868 0.416,-0.63667 0.416,-0.90692 0,-0.27026 -0.18732,-0.67876 -0.416,-0.90744 -0.36994,-0.36997 -2.42775,-0.41548 -18.67017,-0.41548 z m 9.21494,6.91999 c -2.48949,-7.4e-4 -5.67808,0.008 -9.76582,0.0233 -16.39258,0.0609 -18.30061,0.11125 -18.53943,0.48989 -0.4278,0.67827 -0.007,1.75233 0.80357,2.05155 0.47103,0.17386 6.97168,0.25176 18.41024,0.22066 17.16897,-0.0467 17.69325,-0.063 18.05781,-0.56172 0.49085,-0.6714 0.47605,-1.33264 -0.0419,-1.85054 -0.28025,-0.28021 -1.45606,-0.37089 -8.92452,-0.3731 z m -18.47278,6.87762 c -7.32267,0.003 -9.29928,0.0875 -9.59941,0.30696 -0.62906,0.46009 -0.63327,1.75458 -0.007,2.21278 h 5.2e-4 c 0.38987,0.28389 3.97208,0.3514 18.68568,0.3514 17.85287,0 18.21638,-0.0103 18.73529,-0.52917 0.62619,-0.62619 0.66255,-1.03896 0.15348,-1.73529 -0.36454,-0.49867 -0.90965,-0.51568 -18.72754,-0.58498 -3.76489,-0.0146 -6.79989,-0.0228 -9.24078,-0.0217 z m 18.81901,7.10447 v 1.85209 1.85208 h 6.21771 6.21771 v -1.85208 -1.85209 h -6.21771 z" /><path
       id="path82"
       style="fill:#000000"
       d="m 136.66453,38.878247 c -0.38408,0.07855 -2.46922,2.710449 -4.69739,5.950024 -0.68042,0.989283 -2.23566,4.069891 -2.11202,4.183724 0.0471,0.04339 0.91922,0.645431 1.93787,1.337387 1.01865,0.691955 2.32833,1.656081 2.91042,2.142504 1.05234,0.879411 1.06082,0.881243 1.50636,0.347266 1.68089,-2.014552 2.20927,-6.511656 1.27745,-10.872205 -0.32201,-1.506872 -0.66816,-2.888603 -0.76895,-3.070096 -0.01,-0.01804 -0.0281,-0.02384 -0.0537,-0.0186 z m -42.888859,0.02222 c -0.325204,-0.01695 -0.473105,0.795454 -0.862996,2.68304 -0.46499,2.251116 -0.530104,6.329316 -0.128674,8.070825 0.14792,0.641715 0.517095,1.743045 0.820105,2.447396 0.597379,1.388662 0.767419,1.500803 1.300179,0.858863 0.377819,-0.455242 4.8653,-3.72069 5.322675,-3.873149 0.5484,-0.182799 -1.874064,-4.283927 -5.17333,-8.757605 -0.664667,-0.901263 -1.025022,-1.416187 -1.277959,-1.42937 z m 41.225909,29.043188 c -1.06136,0.0058 -2.50218,0.143896 -3.54449,0.389641 -3.12047,0.735718 -5.9446,2.544074 -7.49721,4.80074 -0.72135,1.04845 -2.08877,4.074012 -2.08877,4.621424 0,0.107684 0.50602,-0.08012 1.12448,-0.417029 0.77503,-0.422202 1.78228,-0.66605 3.24115,-0.784965 3.67492,-0.299549 5.85075,-1.817448 7.77162,-5.421375 0.46552,-0.873398 1.19907,-1.838994 1.63039,-2.146122 0.43132,-0.307128 0.78445,-0.669507 0.78445,-0.805119 0,-0.166267 -0.59612,-0.241733 -1.42162,-0.237195 z m -38.418328,0.07183 c -0.358239,-0.003 -0.662863,0.01297 -0.860929,0.05013 l -0.960149,0.179834 0.823723,0.70435 c 0.453078,0.387318 1.218598,1.461842 1.701188,2.387967 1.086048,2.084225 2.784065,3.865681 4.307235,4.518588 0.63631,0.272758 2.18345,0.621172 3.43803,0.774629 1.25457,0.153459 2.60943,0.452566 3.01118,0.664559 0.40174,0.21199 0.77048,0.275775 0.81908,0.141594 0.0486,-0.134181 -0.39376,-1.240074 -0.98289,-2.457215 -1.82792,-3.776463 -5.06541,-6.143328 -9.301758,-6.800618 -0.651548,-0.101091 -1.397646,-0.15877 -1.99471,-0.163814 z m 18.599898,29.287618 c -4.665,0 -5.39608,0.234984 -5.11442,1.64331 0.21295,1.064737 1.07664,2.218727 2.3518,3.142447 2.18972,1.58622 5.33661,0.78941 7.0404,-1.78284 0.96529,-1.457359 1.00208,-1.765193 0.29352,-2.473751 -0.48299,-0.482984 -0.88191,-0.529166 -4.5713,-0.529166 z" /><path
       id="path78"
       style="fill:#f9f9f9"
       d="m 131.77749,70.658736 c -0.30306,-0.02228 -1.09401,0.263226 -2.57142,0.914156 -1.52993,0.674068 -3.10162,2.121471 -3.10162,2.856157 0,0.535315 1.89838,0.244082 3.25251,-0.498678 0.89888,-0.493046 2.56832,-2.539934 2.56832,-3.149162 0,-0.07365 -0.0468,-0.115045 -0.14779,-0.122473 z m -31.932938,0.188619 c -0.61732,-0.0034 -0.585694,0.183417 0.206188,1.221631 1.25928,1.650995 2.45387,2.344704 4.6731,2.714046 0.10056,0.01674 0.24818,-0.07576 0.32815,-0.205155 0.43462,-0.703227 -3.78018,-3.722555 -5.207438,-3.730522 z" /></g></svg>
